<svg xmlns="http://www.w3.org/2000/svg" width="344" height="390" viewBox="0 0 344 390" role="img" aria-label="Logo roxa sobre fundo azul escuro">
  <rect width="344" height="390" fill="#1A1A2E"/>
  <g fill="#6C3CE9">
    <circle cx="168" cy="203.753" r="68.747"/>
    <path d="M 160.976 78.901 A 125.05 125.05 0 0 1 237.274 99.645 L 194.884 117.862 A 90 90 0 0 0 145.998 116.484 Z"/>
    <path d="M 251.317 110.503 A 125.05 125.05 0 0 1 290.6 179.122 L 247.744 162.029 A 90 90 0 0 0 214.151 126.487 Z"/>
    <path d="M 292.853 196.729 A 125.05 125.05 0 0 1 272.108 273.028 L 253.891 230.637 A 90 90 0 0 0 255.269 181.752 Z"/>
    <path d="M 261.251 287.071 A 125.05 125.05 0 0 1 192.631 326.354 L 209.724 283.497 A 90 90 0 0 0 245.266 249.905 Z"/>
    <path d="M 175.024 328.606 A 125.05 125.05 0 0 1 98.726 307.862 L 141.116 289.644 A 90 90 0 0 0 190.002 291.023 Z"/>
    <path d="M 84.683 297.004 A 125.05 125.05 0 0 1 45.4 228.385 L 88.256 245.478 A 90 90 0 0 0 121.849 281.02 Z"/>
    <path d="M 43.147 210.777 A 125.05 125.05 0 0 1 63.892 134.479 L 82.109 176.87 A 90 90 0 0 0 80.731 225.755 Z"/>
    <path d="M 74.749 120.436 A 125.05 125.05 0 0 1 143.369 81.153 L 126.276 124.01 A 90 90 0 0 0 90.734 157.602 Z"/>
  </g>
</svg>
